{
    "asset" : {
        "generator" : "Khronos glTF Blender I/O v1.3.48",
        "version" : "2.0"
    },
    "scene" : 0,
    "scenes" : [
        {
            "name" : "Scene",
            "nodes" : [
                0
            ]
        }
    ],
    "nodes" : [
        {
            "mesh" : 0,
            "name" : "GP_Layer.001",
            "translation" : [
                2.578030586242676,
                0.6858155131340027,
                -1.0988245010375977
            ]
        }
    ],
    "animations" : [
        {
            "channels" : [
                {
                    "sampler" : 0,
                    "target" : {
                        "node" : 0,
                        "path" : "rotation"
                    }
                }
            ],
            "name" : "GP_Layer.001Action",
            "samplers" : [
                {
                    "input" : 12,
                    "interpolation" : "LINEAR",
                    "output" : 13
                }
            ]
        }
    ],
    "materials" : [
        {
            "doubleSided" : true,
            "emissiveFactor" : [
                0,
                0,
                0
            ],
            "name" : "Material.005",
            "pbrMetallicRoughness" : {}
        },
        {
            "doubleSided" : true,
            "emissiveFactor" : [
                1,
                1,
                1
            ],
            "name" : "Material",
            "pbrMetallicRoughness" : {}
        },
        {
            "emissiveFactor" : [
                0,
                0,
                0
            ],
            "name" : "Material.001",
            "pbrMetallicRoughness" : {}
        }
    ],
    "meshes" : [
        {
            "name" : "GP_Layer.001",
            "primitives" : [
                {
                    "attributes" : {
                        "POSITION" : 0,
                        "NORMAL" : 1,
                        "TEXCOORD_0" : 2
                    },
                    "indices" : 3,
                    "material" : 0
                },
                {
                    "attributes" : {
                        "POSITION" : 4,
                        "NORMAL" : 5,
                        "TEXCOORD_0" : 6
                    },
                    "indices" : 7,
                    "material" : 1
                },
                {
                    "attributes" : {
                        "POSITION" : 8,
                        "NORMAL" : 9,
                        "TEXCOORD_0" : 10
                    },
                    "indices" : 11,
                    "material" : 2
                }
            ]
        }
    ],
    "accessors" : [
        {
            "bufferView" : 0,
            "componentType" : 5126,
            "count" : 988,
            "max" : [
                -2.9554965496063232,
                1.8350566625595093,
                2.241920232772827
            ],
            "min" : [
                -4.546540260314941,
                -0.006367586087435484,
                1.0728741884231567
            ],
            "type" : "VEC3"
        },
        {
            "bufferView" : 1,
            "componentType" : 5126,
            "count" : 988,
            "type" : "VEC3"
        },
        {
            "bufferView" : 2,
            "componentType" : 5126,
            "count" : 988,
            "type" : "VEC2"
        },
        {
            "bufferView" : 3,
            "componentType" : 5123,
            "count" : 1482,
            "type" : "SCALAR"
        },
        {
            "bufferView" : 4,
            "componentType" : 5126,
            "count" : 2136,
            "max" : [
                -2.3693270683288574,
                1.7701157331466675,
                2.2880563735961914
            ],
            "min" : [
                -5.120060443878174,
                -0.25650230050086975,
                0.536590576171875
            ],
            "type" : "VEC3"
        },
        {
            "bufferView" : 5,
            "componentType" : 5126,
            "count" : 2136,
            "type" : "VEC3"
        },
        {
            "bufferView" : 6,
            "componentType" : 5126,
            "count" : 2136,
            "type" : "VEC2"
        },
        {
            "bufferView" : 7,
            "componentType" : 5123,
            "count" : 3156,
            "type" : "SCALAR"
        },
        {
            "bufferView" : 8,
            "componentType" : 5126,
            "count" : 1968,
            "max" : [
                -2.341660499572754,
                1.7993688583374023,
                2.3185770511627197
            ],
            "min" : [
                -5.14691686630249,
                -0.2859950661659241,
                0.5089306235313416
            ],
            "type" : "VEC3"
        },
        {
            "bufferView" : 9,
            "componentType" : 5126,
            "count" : 1968,
            "type" : "VEC3"
        },
        {
            "bufferView" : 10,
            "componentType" : 5126,
            "count" : 1968,
            "type" : "VEC2"
        },
        {
            "bufferView" : 11,
            "componentType" : 5123,
            "count" : 2904,
            "type" : "SCALAR"
        },
        {
            "bufferView" : 12,
            "componentType" : 5126,
            "count" : 50,
            "max" : [
                2.0833333333333335
            ],
            "min" : [
                0.041666666666666664
            ],
            "type" : "SCALAR"
        },
        {
            "bufferView" : 13,
            "componentType" : 5126,
            "count" : 50,
            "type" : "VEC4"
        }
    ],
    "bufferViews" : [
        {
            "buffer" : 0,
            "byteLength" : 11856,
            "byteOffset" : 0
        },
        {
            "buffer" : 0,
            "byteLength" : 11856,
            "byteOffset" : 11856
        },
        {
            "buffer" : 0,
            "byteLength" : 7904,
            "byteOffset" : 23712
        },
        {
            "buffer" : 0,
            "byteLength" : 2964,
            "byteOffset" : 31616
        },
        {
            "buffer" : 0,
            "byteLength" : 25632,
            "byteOffset" : 34580
        },
        {
            "buffer" : 0,
            "byteLength" : 25632,
            "byteOffset" : 60212
        },
        {
            "buffer" : 0,
            "byteLength" : 17088,
            "byteOffset" : 85844
        },
        {
            "buffer" : 0,
            "byteLength" : 6312,
            "byteOffset" : 102932
        },
        {
            "buffer" : 0,
            "byteLength" : 23616,
            "byteOffset" : 109244
        },
        {
            "buffer" : 0,
            "byteLength" : 23616,
            "byteOffset" : 132860
        },
        {
            "buffer" : 0,
            "byteLength" : 15744,
            "byteOffset" : 156476
        },
        {
            "buffer" : 0,
            "byteLength" : 5808,
            "byteOffset" : 172220
        },
        {
            "buffer" : 0,
            "byteLength" : 200,
            "byteOffset" : 178028
        },
        {
            "buffer" : 0,
            "byteLength" : 800,
            "byteOffset" : 178228
        }
    ],
    "buffers" : [
        {
            "byteLength" : 179028,
            "uri" : "data:application/octet-stream;base64,"
        }
    ]
}
